<svg width="20" height="28" viewBox="0 0 20 28" fill="none" xmlns="http://www.w3.org/2000/svg">
    <path fill-rule="evenodd" clip-rule="evenodd"
        d="M15.995 0H0V1.045L4.84045 9.43103C1.93914 11.181 0 14.363 0 18C0 23.525 4.475 28 10 28C15.525 28 20 23.525 20 18C20 14.363 18.0609 11.181 15.1596 9.43103L20 1.045V0H18.305L13.3539 8.57579C12.5972 8.30665 11.7984 8.12603 10.9699 8.04638L7.48047 2H14.84L15.995 0ZM2.86 2H5.17458L5.17212 2.00142L8.68351 8.08579C7.98237 8.1779 7.30415 8.34257 6.65665 8.57203L2.86 2ZM9.78981 10.0027L9.79072 10.0043L9.79362 10.0026C9.86221 10.0009 9.931 10 10 10C14.41 10 18 13.59 18 18C18 22.41 14.41 26 10 26C5.59 26 2 22.41 2 18C2 13.6603 5.4765 10.1146 9.78981 10.0027Z"
        fill="black" />
</svg>