<svg xmlns="http://www.w3.org/2000/svg" version="1.1" xmlns:xlink="http://www.w3.org/1999/xlink" xmlns:svgjs="http://svgjs.dev/svgjs" width="1500" height="1500" viewBox="0 0 1500 1500"><rect width="1500" height="1500" fill="#ffffff"></rect><g transform="matrix(0.6666666666666666,0,0,0.6666666666666666,249.17995360276558,363.758064516129)"><svg viewBox="0 0 322 248" data-background-color="#ffffff" preserveAspectRatio="xMidYMid meet" height="1155" width="1500" xmlns="http://www.w3.org/2000/svg" xmlns:xlink="http://www.w3.org/1999/xlink"><g id="tight-bounds" transform="matrix(1,0,0,1,0.26405493990947093,0.4000000000000057)"><svg viewBox="0 0 321.47189012018106 247.2" height="247.2" width="321.47189012018106"><g><svg viewBox="0 0 321.47189012018106 247.2" height="247.2" width="321.47189012018106"><g><svg viewBox="0 0 321.47189012018106 247.2" height="247.2" width="321.47189012018106"><g><svg viewBox="0 0 321.47189012018106 247.2" height="247.2" width="321.47189012018106"><g><svg viewBox="0 0 321.47189012018106 247.2" height="247.2" width="321.47189012018106"><g id="textblocktransform"><svg viewBox="0 0 321.47189012018106 247.2" height="247.2" width="321.47189012018106" id="textblock"><g><svg viewBox="0 0 321.47189012018106 247.2" height="247.2" width="321.47189012018106"><g transform="matrix(1,0,0,1,0,0)"><svg width="321.47189012018106" viewBox="-4.74 -33.8 49.82 38.54" height="247.2" data-palette-color="#181f22"><path d="M28.08 0L28.47 0 38.13-28.03 40.58-28.03 40.58-29.3 32.67-29.3 32.67-28.03 36.57-28.03 28.91-4.98 21.04-28.03 25-28.03 25-29.3 16.6-29.3 19.92-19.92 14.79-5.08 6.54-28.03 10.5-28.03 10.5-29.3-0.24-29.3-0.24-28.03 2.64-28.03 11.62-2.93Q12.6-0.15 13.38 0.15L13.38 0.15Q13.67 0.24 13.96 0.24L13.96 0.24 14.36 0.24 20.7-17.68 25.93-2.93Q26.81-0.44 27.34-0.15L27.34-0.15Q27.64 0 28.08 0L28.08 0Z" opacity="1" transform="matrix(1,0,0,1,0,0)" fill="#000000" class="wordmark-text-0" data-fill-palette-color="primary" id="text-0"></path></svg></g></svg></g></svg></g></svg></g><g></g></svg></g></svg></g></svg></g><defs></defs></svg><rect width="321.47189012018106" height="247.2" fill="none" stroke="none" visibility="hidden"></rect></g></svg></g></svg>